<svg width="169" height="41" viewBox="0 0 169 41" fill="none" xmlns="http://www.w3.org/2000/svg">
<path d="M38.3772 23.7002L35.7075 18.8313L38.3616 13.884H30.567C28.0452 8.35361 22.4643 4.5 16 4.5C7.17759 4.5 0 11.6776 0 20.5C0 29.3224 7.17759 36.5 16 36.5C23.7269 36.5 30.1918 30.9944 31.6783 23.7002H38.3772ZM35.3666 15.676L33.6688 18.8406L35.3508 21.908H31.9373C31.978 21.4438 32 20.9745 32 20.4999C32 18.8193 31.7389 17.1988 31.2563 15.676H35.3666ZM5.06639 11.437L15.9997 14.7394L27.1843 11.7471C29.0778 14.1613 30.2081 17.2011 30.2081 20.5C30.2081 21.7831 30.0362 23.0264 29.7158 24.2095L15.9999 20.7558L2.06757 23.2882C1.88738 22.3863 1.79219 21.454 1.79219 20.5C1.79204 17.058 3.02266 13.8984 5.06639 11.437ZM16.9166 32.1464C16.7743 32.1521 16.6307 32.1548 16.4884 32.1548C14.8392 32.1548 13.1985 31.7872 11.7169 31.0831L12.8914 28.6142C14.1209 29.1987 15.4392 29.4677 16.8109 29.4155C19.0586 29.3283 21.136 28.3676 22.6569 26.7129L24.6695 28.5621C22.6514 30.7578 19.898 32.0309 16.9166 32.1464ZM11.8074 17.8463C11.5536 19.2889 10.2956 20.384 8.77924 20.384C7.08135 20.384 5.70336 19.0075 5.70336 17.3081C5.70336 17.0066 5.74639 16.7159 5.82794 16.4407L11.8074 17.8463ZM26.4008 17.3079C26.4008 19.0073 25.0243 20.3838 23.325 20.3838C21.8101 20.3838 20.5504 19.2887 20.2967 17.8461L26.2764 16.4419C26.3578 16.7174 26.4008 17.0081 26.4008 17.3079Z" fill="white"/>
<path d="M63.2834 8.76562H70.2522V29.5H63.3303V21.0781H58.2053V16.9219H63.2834V8.76562ZM57.1116 29.5H50.2053V8.76562H57.1116V29.5ZM88.7822 27.2344H82.0009L83.4384 23.125H87.1884L81.6416 8.76562H88.3759L96.6416 29.5H89.6572L88.7822 27.2344ZM80.1572 29.5H73.4853L80.8916 9.70312L83.9541 17.9375L80.1572 29.5ZM106.484 29.5H103.734L99.5778 25.3594V12.9062L103.734 8.76562H106.484V29.5ZM107.578 12.9062V8.76562H114.937L119.078 12.9062V17.0781H112.172V12.9062H107.578ZM107.578 29.5V25.3594H112.172V22.3281H119.078V25.3594L114.937 29.5H107.578ZM123.67 29.5V8.76562H130.577V29.5H123.67ZM131.639 26.5625V16.4844L136.483 8.78125L143.67 8.76562L131.639 26.5625ZM143.998 29.5H136.53L134.186 24.6719L138.28 18.5312L143.998 29.5ZM159.169 29.5V21.7344H150.2L146.044 17.5781V12.9062L150.2 8.76562H152.544V16.125H162.075L166.091 20.2812V25.3594L161.95 29.5H159.169ZM153.638 12.5V8.76562H161.935L165.528 12.375V14.5781H159.169V12.5H153.638ZM146.044 23.2812H152.95V25.75H158.075V29.5H149.528L146.044 25.3594V23.2812Z" fill="white"/>
</svg>
